<?xml version="1.0" standalone="no"?><svg xmlns="http://www.w3.org/TR/SVG" viewBox="0 0 1440 320"><path fill="#0099ff" fill-opacity="1" d="M0,32L17.1,69.3C34.3,107,69,181,103,218.7C137.1,256,171,256,206,234.7C240,213,274,171,309,176C342.9,181,377,235,411,261.3C445.7,288,480,288,514,250.7C548.6,213,583,139,617,128C651.4,117,686,171,720,186.7C754.3,203,789,181,823,165.3C857.1,149,891,139,926,160C960,181,994,235,1029,218.7C1062.9,203,1097,117,1131,106.7C1165.7,96,1200,160,1234,176C1268.6,192,1303,160,1337,154.7C1371.4,149,1406,171,1423,181.3L1440,192L1440,320L1422.9,320C1405.7,320,1371,320,1337,320C1302.9,320,1269,320,1234,320C1200,320,1166,320,1131,320C1097.1,320,1063,320,1029,320C994.3,320,960,320,926,320C891.4,320,857,320,823,320C788.6,320,754,320,720,320C685.7,320,651,320,617,320C582.9,320,549,320,514,320C480,320,446,320,411,320C377.1,320,343,320,309,320C274.3,320,240,320,206,320C171.4,320,137,320,103,320C68.6,320,34,320,17,320L0,320Z"></path></svg>